<?xml version="1.0" encoding="UTF-8" standalone="no"?>
<svg
   xmlns:dc="http://purl.org/dc/elements/1.1/"
   xmlns:cc="http://creativecommons.org/ns#"
   xmlns:rdf="http://www.w3.org/1999/02/22-rdf-syntax-ns#"
   xmlns:svg="http://www.w3.org/2000/svg"
   xmlns="http://www.w3.org/2000/svg"
   xmlns:sodipodi="http://sodipodi.sourceforge.net/DTD/sodipodi-0.dtd"
   xmlns:inkscape="http://www.inkscape.org/namespaces/inkscape"
   inkscape:version="1.0 (4035a4fb49, 2020-05-01)"
   sodipodi:docname="github-icon.svg"
   width="180"
   version="1.1"
   id="svg2"
   height="179.99997">
  <metadata
     id="metadata19">
    <rdf:RDF>
      <cc:Work
         rdf:about="">
        <dc:format>image/svg+xml</dc:format>
        <dc:type
           rdf:resource="http://purl.org/dc/dcmitype/StillImage" />
      </cc:Work>
    </rdf:RDF>
  </metadata>
  <sodipodi:namedview
     inkscape:current-layer="layer11"
     inkscape:window-maximized="1"
     inkscape:window-y="0"
     inkscape:window-x="0"
     inkscape:cy="67.237229"
     inkscape:cx="48.980066"
     inkscape:zoom="2.695"
     inkscape:snap-bbox-midpoints="true"
     inkscape:snap-bbox-edge-midpoints="true"
     inkscape:bbox-nodes="true"
     inkscape:bbox-paths="true"
     inkscape:snap-bbox="true"
     inkscape:snap-page="true"
     showgrid="false"
     id="namedview17"
     inkscape:window-height="703"
     inkscape:window-width="1366"
     inkscape:pageshadow="2"
     inkscape:pageopacity="0"
     guidetolerance="10"
     gridtolerance="10"
     objecttolerance="10"
     borderopacity="1"
     bordercolor="#666666"
     pagecolor="#ffffff"
     inkscape:document-rotation="0" />
  <defs
     id="defs4">
    <clipPath
       id="clipPath18"
       clipPathUnits="userSpaceOnUse">
      <path
         id="path20"
         d="M 0,551.986 H 530.973 V 0 H 0 Z" />
    </clipPath>
    <clipPath
       id="clipPath18-7"
       clipPathUnits="userSpaceOnUse">
      <path
         id="path20-4"
         d="M 0,551.986 H 530.973 V 0 H 0 Z" />
    </clipPath>
  </defs>
  <g
     transform="translate(-10,-10.00005)"
     id="layer11">
    <path
       transform="translate(10,10.00005)"
       d="M 90,0 C 40.294366,0 0,40.294371 0,90 c 0,49.70567 40.294366,90 90,90 0.750447,0 1.47964,-0.084 2.21875,-0.125 0.26003,-0.014 0.52093,-0.0182 0.78125,-0.0312 0.93792,-0.046 1.87645,-0.096 2.8125,-0.15625 3.05043,-0.1958 6.04361,-0.58635 9,-1.09375 3.40887,-0.585 6.76448,-1.33505 10.03125,-2.28125 5.67307,-1.6433 11.11833,-3.782 16.28125,-6.4375 18.08925,-9.3041 32.44221,-24.61048 40.78125,-43.21875 0.0631,-0.14086 0.15632,-0.26501 0.21875,-0.40625 1.70139,-3.84911 3.2178,-7.79522 4.375,-11.90625 0.67583,-2.40093 1.16632,-4.87165 1.65625,-7.34375 0.1628,-0.82145 0.4264,-1.606 0.5625,-2.4375 0.59899,-3.6596 0.95632,-7.39741 1.125,-11.1875 C 179.89375,92.25049 180,91.13693 180,90 c 0,-3.650219 -0.29637,-7.21352 -0.71875,-10.75 -0.0857,-0.71775 -0.24127,-1.41252 -0.34375,-2.125 C 172.66932,33.54488 135.31459,0 90,0 Z m 0,40 c 28.31311,0 51.26562,22.950815 51.26562,51.265625 0,22.643015 -14.66993,41.854165 -35.02929,48.640625 -2.59862,0.50257 -3.52149,-1.09584 -3.52149,-2.46094 0,-1.68855 0.0586,-7.2089 0.0586,-14.06836 0,-4.78295 -1.63776,-7.90322 -3.476565,-9.49414 11.415745,-1.26917 23.408205,-5.60368 23.408205,-25.294919 0,-5.596234 -1.98829,-10.171538 -5.27539,-13.761719 0.53227,-1.291243 2.28851,-6.504896 -0.50196,-13.566406 0,0 -4.29906,-1.376936 -14.08398,5.255859 C 98.74675,65.379738 94.35678,64.809443 90,64.789062 c -4.356785,0.02038 -8.742671,0.590676 -12.832031,1.726563 -9.79596,-6.632795 -14.101563,-5.255859 -14.101563,-5.255859 -2.78453,7.06151 -1.028384,12.275163 -0.496094,13.566406 -3.27947,3.590181 -5.283203,8.165485 -5.283203,13.761719 0,19.643699 11.970542,24.040459 23.357422,25.335939 -1.46613,1.28021 -2.792936,3.54289 -3.253906,6.85547 -2.92546,1.30992 -10.347512,3.57488 -14.919922,-4.26172 0,0 -2.709432,-4.92156 -7.857422,-5.2832 0,0 -5.002922,-0.0666 -0.351562,3.11523 0,0 3.361309,1.57717 5.693359,7.50195 0,0 3.009235,9.15002 17.271484,6.04883 0.0221,4.28376 0.06836,8.32329 0.06836,9.54492 0,1.35406 -0.939843,2.94136 -3.501953,2.4668 C 53.423429,133.13329 38.734375,113.91542 38.734375,91.265625 38.734375,62.950815 61.690285,40 90,40 Z"
       inkscape:label="path6770"
       style="fill:#434d64;fill-opacity:1;stroke:none"
       id="path6770" />
  </g>
</svg>
