<?xml version="1.0" encoding="UTF-8" standalone="no"?>
<svg
   xmlns:dc="http://purl.org/dc/elements/1.1/"
   xmlns:cc="http://creativecommons.org/ns#"
   xmlns:rdf="http://www.w3.org/1999/02/22-rdf-syntax-ns#"
   xmlns:svg="http://www.w3.org/2000/svg"
   xmlns="http://www.w3.org/2000/svg"
   xmlns:sodipodi="http://sodipodi.sourceforge.net/DTD/sodipodi-0.dtd"
   xmlns:inkscape="http://www.inkscape.org/namespaces/inkscape"
   inkscape:version="1.0 (4035a4fb49, 2020-05-01)"
   sodipodi:docname="linkedin-icon.svg"
   xml:space="preserve"
   width="48"
   viewBox="0 0 48 48"
   version="1.1"
   id="Layer_1"
   height="48"
   enable-background="new 0 0 100 100"><metadata
     id="metadata18"><rdf:RDF><cc:Work
         rdf:about=""><dc:format>image/svg+xml</dc:format><dc:type
           rdf:resource="http://purl.org/dc/dcmitype/StillImage" /></cc:Work></rdf:RDF></metadata><defs
     id="defs16" /><sodipodi:namedview
     inkscape:current-layer="Layer_1"
     inkscape:window-maximized="1"
     inkscape:window-y="0"
     inkscape:window-x="0"
     inkscape:cy="45"
     inkscape:cx="45"
     inkscape:zoom="5.39"
     showgrid="false"
     id="namedview14"
     inkscape:window-height="703"
     inkscape:window-width="1366"
     inkscape:pageshadow="2"
     inkscape:pageopacity="0"
     guidetolerance="10"
     gridtolerance="10"
     objecttolerance="10"
     borderopacity="1"
     bordercolor="#666666"
     pagecolor="#ffffff"
     inkscape:document-rotation="0" /><path
     d="M 23.789062 0 A 24 24 0 0 0 0 24 A 24 24 0 0 0 24 48 A 24 24 0 0 0 48 24 A 24 24 0 0 0 24 0 A 24 24 0 0 0 23.789062 0 z M 15.986328 14.4375 C 17.499395 14.4375 18.429648 15.406786 18.458984 16.689453 C 18.458984 17.94812 17.498898 18.945312 15.957031 18.945312 L 15.927734 18.945312 C 14.442401 18.945312 13.480469 17.950606 13.480469 16.691406 C 13.480469 15.408206 14.472195 14.4375 15.986328 14.4375 z M 29.316406 20.445312 C 32.23054 20.445312 34.520065 22.313891 34.519531 26.337891 L 34.519531 33.5625 L 29.869141 33.5625 L 29.869141 26.839844 C 29.869141 25.080377 29.141902 23.878906 27.542969 23.878906 C 26.320035 23.878906 25.639066 24.689903 25.322266 25.470703 C 25.202796 25.751236 25.222656 26.14227 25.222656 26.533203 L 25.222656 33.5625 L 20.615234 33.5625 C 20.615234 33.5625 20.673364 21.65298 20.615234 20.570312 L 25.222656 20.570312 L 25.222656 22.609375 C 25.495723 21.718175 26.96654 20.445312 29.316406 20.445312 z M 14.011719 20.570312 L 18.113281 20.570312 L 18.113281 33.5625 L 14.011719 33.5625 L 14.011719 20.570312 z "
     style="fill:#599aac;stroke-width:0.533333"
     id="circle2" /></svg>
