<?xml version="1.0" encoding="UTF-8" standalone="no"?>
<svg
   xmlns:dc="http://purl.org/dc/elements/1.1/"
   xmlns:cc="http://creativecommons.org/ns#"
   xmlns:rdf="http://www.w3.org/1999/02/22-rdf-syntax-ns#"
   xmlns:svg="http://www.w3.org/2000/svg"
   xmlns="http://www.w3.org/2000/svg"
   xmlns:sodipodi="http://sodipodi.sourceforge.net/DTD/sodipodi-0.dtd"
   xmlns:inkscape="http://www.inkscape.org/namespaces/inkscape"
   inkscape:version="1.0 (4035a4fb49, 2020-05-01)"
   sodipodi:docname="website-icon.svg"
   xml:space="preserve"
   width="48"
   viewBox="0 0 48 48"
   version="1.1"
   id="Capa_1"
   height="48"><metadata
     id="metadata39"><rdf:RDF><cc:Work
         rdf:about=""><dc:format>image/svg+xml</dc:format><dc:type
           rdf:resource="http://purl.org/dc/dcmitype/StillImage" /><dc:title></dc:title></cc:Work></rdf:RDF></metadata><defs
     id="defs37" /><sodipodi:namedview
     inkscape:current-layer="Capa_1"
     inkscape:window-maximized="1"
     inkscape:window-y="0"
     inkscape:window-x="0"
     inkscape:cy="5.2542291"
     inkscape:cx="48"
     inkscape:zoom="5.6145249"
     showgrid="false"
     id="namedview35"
     inkscape:window-height="703"
     inkscape:window-width="1366"
     inkscape:pageshadow="2"
     inkscape:pageopacity="0"
     guidetolerance="10"
     gridtolerance="10"
     objecttolerance="10"
     borderopacity="1"
     bordercolor="#666666"
     pagecolor="#ffffff" /><path
     style="stroke-width:0.499997;fill:#67729a"
     id="path2"
     d="M 24,0 C 10.7655,0 0,10.768388 0,24.00025 0,37.234612 10.7655,48 24,48 37.2345,48 48,37.234612 48,24.00025 48,10.768388 37.2345,0 24,0 Z m 20.469,24.00025 c 0,4.681451 -1.5885,8.999906 -4.2395,12.45287 -0.75,-0.588994 -1.547,-2.169977 -0.797,-3.81046 0.7555,-1.650483 0.953,-5.468943 0.781,-6.954928 -0.1665,-1.484484 -0.9375,-5.065447 -3.036,-5.099446 -2.094,-0.031 -3.531,-0.723493 -4.7765,-3.207967 C 29.818,12.210873 37.25,11.218883 34.6665,8.354413 33.943,7.5519213 30.2085,11.663879 29.6615,6.1824356 29.625,5.7939396 30,5.2079458 30.5,4.5984521 38.6095,7.3229237 44.469,14.987344 44.469,24.00025 Z M 21.1875,3.7344611 c -0.4895,0.9529901 -1.781,1.340986 -2.568,2.0574786 -1.708,1.5469839 -2.4425,1.3329861 -3.3645,2.8174706 -0.927,1.4844847 -3.917,3.6249627 -3.917,4.6979507 0,1.072489 1.5105,2.340976 2.2655,2.093979 0.7555,-0.247998 2.745,-0.234498 3.917,0.176998 1.172,0.413995 9.786,0.827991 7.0415,8.109915 -0.8695,2.314476 -4.682,1.92398 -5.698,5.75994 -0.1515,0.560494 -0.677,2.963969 -0.714,3.749961 -0.0625,1.213988 0.8595,5.79494 -0.3125,5.79494 -1.177,0 -4.344,-4.096458 -4.344,-4.83895 0,-0.742492 -0.823,-3.346465 -0.823,-5.574942 0,-2.229476 -3.7915,-2.193477 -3.7915,-5.155946 0,-2.674972 2.057,-4.002958 1.594,-5.283945 C 10.02,16.865324 6.405,16.818325 4.9,16.665326 7.531,9.8358975 13.724,4.7654504 21.1875,3.7344611 Z m -3.625,39.6895869 c 1.229,-0.648494 1.354,-1.486485 2.469,-1.532984 1.276,-0.0575 2.3125,-0.497995 3.75,-0.812492 1.276,-0.279497 3.557,-1.572984 5.568,-1.739982 1.6925,-0.137498 5.036,0.089 5.9375,1.724482 -3.2395,2.150478 -7.12,3.405965 -11.2865,3.405965 -2.2505,-5e-4 -4.412,-0.370496 -6.438,-1.044989 z" /></svg>
