<?xml version="1.0" encoding="UTF-8" standalone="no"?>
<svg
   xmlns:dc="http://purl.org/dc/elements/1.1/"
   xmlns:cc="http://creativecommons.org/ns#"
   xmlns:rdf="http://www.w3.org/1999/02/22-rdf-syntax-ns#"
   xmlns:svg="http://www.w3.org/2000/svg"
   xmlns="http://www.w3.org/2000/svg"
   xmlns:sodipodi="http://sodipodi.sourceforge.net/DTD/sodipodi-0.dtd"
   xmlns:inkscape="http://www.inkscape.org/namespaces/inkscape"
   inkscape:version="1.0 (4035a4fb49, 2020-05-01)"
   sodipodi:docname="youtube-icon.svg"
   xml:space="preserve"
   width="48"
   viewBox="0 0 48 48"
   version="1.1"
   id="Layer_1"
   height="48"
   enable-background="new 0 0 100 100"><metadata
     id="metadata14"><rdf:RDF><cc:Work
         rdf:about=""><dc:format>image/svg+xml</dc:format><dc:type
           rdf:resource="http://purl.org/dc/dcmitype/StillImage" /></cc:Work></rdf:RDF></metadata><defs
     id="defs12" /><sodipodi:namedview
     inkscape:current-layer="g7"
     inkscape:window-maximized="1"
     inkscape:window-y="0"
     inkscape:window-x="0"
     inkscape:cy="23.028458"
     inkscape:cx="10.774762"
     inkscape:zoom="15.245222"
     showgrid="false"
     id="namedview10"
     inkscape:window-height="703"
     inkscape:window-width="1366"
     inkscape:pageshadow="2"
     inkscape:pageopacity="0"
     guidetolerance="10"
     gridtolerance="10"
     objecttolerance="10"
     borderopacity="1"
     bordercolor="#666666"
     pagecolor="#ffffff"
     inkscape:document-rotation="0" /><g
     transform="matrix(0.53333333,0,0,0.53333333,-2.6666666,-2.6666666)"
     id="g7"><path
       transform="matrix(1.875,0,0,1.875,4.9999999,4.9999999)"
       d="M 23.789062,0 A 24,24 0 0 0 0,24 24,24 0 0 0 24,48 24,24 0 0 0 48,24 24,24 0 0 0 24,0 24,24 0 0 0 23.789062,0 Z m 0.205079,16.105469 h 0.0098 c 0,0 4.679715,-6.38e-4 7.800782,0.226562 0.434133,0.05227 1.384421,0.05624 2.232421,0.951172 0.668267,0.681067 0.886719,2.226563 0.886719,2.226563 0,0 0.222656,1.818232 0.222656,3.634765 v 1.703125 c 0,1.817067 -0.222656,3.632813 -0.222656,3.632813 0,0 -0.218452,1.547449 -0.886719,2.228515 -0.848,0.894934 -1.798822,0.898372 -2.232421,0.951172 C 28.683621,31.887356 24,31.894531 24,31.894531 c 0,0 -5.796078,-0.05234 -7.580078,-0.224609 -0.496533,-0.0928 -1.610451,-0.06654 -2.458984,-0.960938 -0.6688,-0.6816 -0.884766,-2.228515 -0.884766,-2.228515 0,0 -0.222656,-1.815746 -0.222656,-3.632813 v -1.703125 c 0,-1.816533 0.222656,-3.632812 0.222656,-3.632812 0,0 0.215966,-1.547449 0.884766,-2.228516 0.848533,-0.894933 1.798641,-0.898905 2.234374,-0.951172 3.12,-0.2272 7.798829,-0.226562 7.798829,-0.226562 z m -2.296875,4.498047 0.002,6.308593 6.021484,-3.142578 z"
       style="fill:#eb5243;stroke-width:0.533333"
       id="circle2" /></g></svg>
